# Wavefront OBJ file automatically generated by Tiled2Unity

# Vertices (Count = 121)
v -144 -16 0
v -160 -16 0
v -160 0 0
v -144 0 0
v -128 -16 0
v -128 0 0
v -112 -16 0
v -112 0 0
v -96 -16 0
v -96 0 0
v -80 -16 0
v -80 0 0
v -64 -16 0
v -64 0 0
v -48 -16 0
v -48 0 0
v -32 -16 0
v -32 0 0
v -16 -16 0
v -16 0 0
v 0 -16 0
v 0 0 0
v -144 -32 0
v -160 -32 0
v -128 -32 0
v -112 -32 0
v -96 -32 0
v -80 -32 0
v -64 -32 0
v -48 -32 0
v -32 -32 0
v -16 -32 0
v 0 -32 0
v -144 -48 0
v -160 -48 0
v -128 -48 0
v -112 -48 0
v -96 -48 0
v -80 -48 0
v -64 -48 0
v -48 -48 0
v -32 -48 0
v -16 -48 0
v 0 -48 0
v -144 -64 0
v -160 -64 0
v -128 -64 0
v -112 -64 0
v -96 -64 0
v -80 -64 0
v -64 -64 0
v -48 -64 0
v -32 -64 0
v -16 -64 0
v 0 -64 0
v -144 -80 0
v -160 -80 0
v -128 -80 0
v -112 -80 0
v -96 -80 0
v -80 -80 0
v -64 -80 0
v -48 -80 0
v -32 -80 0
v -16 -80 0
v 0 -80 0
v -144 -96 0
v -160 -96 0
v -128 -96 0
v -112 -96 0
v -96 -96 0
v -80 -96 0
v -64 -96 0
v -48 -96 0
v -32 -96 0
v -16 -96 0
v 0 -96 0
v -144 -112 0
v -160 -112 0
v -128 -112 0
v -112 -112 0
v -96 -112 0
v -80 -112 0
v -64 -112 0
v -48 -112 0
v -32 -112 0
v -16 -112 0
v 0 -112 0
v -144 -128 0
v -160 -128 0
v -128 -128 0
v -112 -128 0
v -96 -128 0
v -80 -128 0
v -64 -128 0
v -48 -128 0
v -32 -128 0
v -16 -128 0
v 0 -128 0
v -144 -144 0
v -160 -144 0
v -128 -144 0
v -112 -144 0
v -96 -144 0
v -80 -144 0
v -64 -144 0
v -48 -144 0
v -32 -144 0
v -16 -144 0
v 0 -144 0
v -144 -160 0
v -160 -160 0
v -128 -160 0
v -112 -160 0
v -96 -160 0
v -80 -160 0
v -64 -160 0
v -48 -160 0
v -32 -160 0
v -16 -160 0
v 0 -160 0

# Texture cooridinates (Count = 120)
vt 0.1581799 0.8727456
vt 0.1744647 0.8727456
vt 0.1744647 0.9029198
vt 0.1581799 0.9029198
vt 0.1581799 0.9050651
vt 0.1744647 0.9050651
vt 0.1744647 0.9352391
vt 0.1581799 0.9352391
vt 0.01768405 0.6141905
vt 0.03396884 0.6141905
vt 0.03396884 0.6443646
vt 0.01768405 0.6443646
vt 0.1406179 0.8727456
vt 0.1569027 0.8727456
vt 0.1569027 0.9029198
vt 0.1406179 0.9029198
vt 0.2986758 0.5818712
vt 0.3149606 0.5818712
vt 0.3149606 0.6120452
vt 0.2986758 0.6120452
vt 0.2459898 0.5818712
vt 0.2622746 0.5818712
vt 0.2622746 0.6120452
vt 0.2459898 0.6120452
vt 0.2811138 0.5818712
vt 0.2973986 0.5818712
vt 0.2973986 0.6120452
vt 0.2811138 0.6120452
vt 0.2635518 0.5495517
vt 0.2798366 0.5495517
vt 0.2798366 0.5797259
vt 0.2635518 0.5797259
vt 0.3337997 0.3879548
vt 0.3500845 0.3879548
vt 0.3500845 0.4181289
vt 0.3337997 0.4181289
vt 0.3337997 0.323316
vt 0.3500845 0.323316
vt 0.3500845 0.3534901
vt 0.3337997 0.3534901
vt 0.3337997 0.3556354
vt 0.3500845 0.3556354
vt 0.3500845 0.3858095
vt 0.3337997 0.3858095
vt 0.2284279 0.5172323
vt 0.2447126 0.5172323
vt 0.2447126 0.5474064
vt 0.2284279 0.5474064
vt 0.4918576 0.9050651
vt 0.5081424 0.9050651
vt 0.5081424 0.9352391
vt 0.4918576 0.9352391
vt 0.5445436 0.8727456
vt 0.5608283 0.8727456
vt 0.5608283 0.9029198
vt 0.5445436 0.9029198
vt 0.7377254 0.5172323
vt 0.7540101 0.5172323
vt 0.7540101 0.5474064
vt 0.7377254 0.5474064
vt 0.8782213 0.5172323
vt 0.894506 0.5172323
vt 0.894506 0.5474064
vt 0.8782213 0.5474064
vt 0.7904114 0.5172323
vt 0.8066961 0.5172323
vt 0.8066961 0.5474064
vt 0.7904114 0.5474064
vt 0.4918576 0.9697038
vt 0.5081424 0.9697038
vt 0.5081424 0.9998779
vt 0.4918576 0.9998779
vt 0.5094196 0.9697038
vt 0.5257044 0.9697038
vt 0.5257044 0.9998779
vt 0.5094196 0.9998779
vt 0.5269816 0.9697038
vt 0.5432664 0.9697038
vt 0.5432664 0.9998779
vt 0.5269816 0.9998779
vt 0.4040477 0.9697038
vt 0.4203325 0.9697038
vt 0.4203325 0.9998779
vt 0.4040477 0.9998779
vt 0.4567336 0.9697038
vt 0.4730184 0.9697038
vt 0.4730184 0.9998779
vt 0.4567336 0.9998779
vt 0.3864857 0.8404263
vt 0.4027705 0.8404263
vt 0.4027705 0.8706003
vt 0.3864857 0.8706003
vt 0.4742956 0.8081068
vt 0.4905804 0.8081068
vt 0.4905804 0.838281
vt 0.4742956 0.838281
vt 0.4567336 0.8727456
vt 0.4730184 0.8727456
vt 0.4730184 0.9029198
vt 0.4567336 0.9029198
vt 0.3689237 0.8404263
vt 0.3852085 0.8404263
vt 0.3852085 0.8706003
vt 0.3689237 0.8706003
vt 0.2108659 0.2586772
vt 0.2271507 0.2586772
vt 0.2271507 0.2888513
vt 0.2108659 0.2888513
vt 0.1757419 0.2586772
vt 0.1920267 0.2586772
vt 0.1920267 0.2888513
vt 0.1757419 0.2888513
vt 0.2108659 0.1940384
vt 0.2271507 0.1940384
vt 0.2271507 0.2242125
vt 0.2108659 0.2242125
vt 0.1757419 0.1940384
vt 0.1920267 0.1940384
vt 0.1920267 0.2242125
vt 0.1757419 0.2242125

# Normal
vn 0 0 -1

# Groups (Count = 3)

g mesh_0001
f 1/1/1 2/2/1 3/3/1 4/4/1
f 5/5/1 1/6/1 4/7/1 6/8/1
f 7/1/1 5/2/1 6/3/1 8/4/1
f 9/1/1 7/2/1 8/3/1 10/4/1
f 11/1/1 9/2/1 10/3/1 12/4/1
f 13/1/1 11/2/1 12/3/1 14/4/1
f 15/5/1 13/6/1 14/7/1 16/8/1
f 17/1/1 15/2/1 16/3/1 18/4/1
f 19/5/1 17/6/1 18/7/1 20/8/1
f 21/5/1 19/6/1 20/7/1 22/8/1
f 23/1/1 24/2/1 2/3/1 1/4/1
f 25/5/1 23/6/1 1/7/1 5/8/1
f 26/1/1 25/2/1 5/3/1 7/4/1
f 27/5/1 26/6/1 7/7/1 9/8/1
f 28/5/1 27/6/1 9/7/1 11/8/1
f 29/1/1 28/2/1 11/3/1 13/4/1
f 30/1/1 29/2/1 13/3/1 15/4/1
f 31/5/1 30/6/1 15/7/1 17/8/1
f 32/5/1 31/6/1 17/7/1 19/8/1
f 33/1/1 32/2/1 19/3/1 21/4/1
f 34/1/1 35/2/1 24/3/1 23/4/1
f 36/5/1 34/6/1 23/7/1 25/8/1
f 37/5/1 36/6/1 25/7/1 26/8/1
f 38/5/1 37/6/1 26/7/1 27/8/1
f 39/1/1 38/2/1 27/3/1 28/4/1
f 40/1/1 39/2/1 28/3/1 29/4/1
f 41/5/1 40/6/1 29/7/1 30/8/1
f 42/5/1 41/6/1 30/7/1 31/8/1
f 43/5/1 42/6/1 31/7/1 32/8/1
f 44/5/1 43/6/1 32/7/1 33/8/1
f 45/5/1 46/6/1 35/7/1 34/8/1
f 47/1/1 45/2/1 34/3/1 36/4/1
f 48/5/1 47/6/1 36/7/1 37/8/1
f 49/5/1 48/6/1 37/7/1 38/8/1
f 50/5/1 49/6/1 38/7/1 39/8/1
f 51/5/1 50/6/1 39/7/1 40/8/1
f 52/1/1 51/2/1 40/3/1 41/4/1
f 53/1/1 52/2/1 41/3/1 42/4/1
f 54/1/1 53/2/1 42/3/1 43/4/1
f 55/1/1 54/2/1 43/3/1 44/4/1
f 56/5/1 57/6/1 46/7/1 45/8/1
f 58/1/1 56/2/1 45/3/1 47/4/1
f 59/5/1 58/6/1 47/7/1 48/8/1
f 60/1/1 59/2/1 48/3/1 49/4/1
f 61/5/1 60/6/1 49/7/1 50/8/1
f 62/5/1 61/6/1 50/7/1 51/8/1
f 63/5/1 62/6/1 51/7/1 52/8/1
f 64/5/1 63/6/1 52/7/1 53/8/1
f 65/1/1 64/2/1 53/3/1 54/4/1
f 66/5/1 65/6/1 54/7/1 55/8/1
f 67/5/1 68/6/1 57/7/1 56/8/1
f 69/5/1 67/6/1 56/7/1 58/8/1
f 70/1/1 69/2/1 58/3/1 59/4/1
f 71/5/1 70/6/1 59/7/1 60/8/1
f 72/5/1 71/6/1 60/7/1 61/8/1
f 73/5/1 72/6/1 61/7/1 62/8/1
f 74/5/1 73/6/1 62/7/1 63/8/1
f 75/1/1 74/2/1 63/3/1 64/4/1
f 76/5/1 75/6/1 64/7/1 65/8/1
f 77/5/1 76/6/1 65/7/1 66/8/1
f 78/5/1 79/6/1 68/7/1 67/8/1
f 80/5/1 78/6/1 67/7/1 69/8/1
f 81/5/1 80/6/1 69/7/1 70/8/1
f 82/5/1 81/6/1 70/7/1 71/8/1
f 83/1/1 82/2/1 71/3/1 72/4/1
f 84/1/1 83/2/1 72/3/1 73/4/1
f 85/5/1 84/6/1 73/7/1 74/8/1
f 86/5/1 85/6/1 74/7/1 75/8/1
f 87/1/1 86/2/1 75/3/1 76/4/1
f 88/1/1 87/2/1 76/3/1 77/4/1
f 89/1/1 90/2/1 79/3/1 78/4/1
f 91/5/1 89/6/1 78/7/1 80/8/1
f 92/1/1 91/2/1 80/3/1 81/4/1
f 93/5/1 92/6/1 81/7/1 82/8/1
f 94/5/1 93/6/1 82/7/1 83/8/1
f 95/5/1 94/6/1 83/7/1 84/8/1
f 96/1/1 95/2/1 84/3/1 85/4/1
f 97/1/1 96/2/1 85/3/1 86/4/1
f 98/5/1 97/6/1 86/7/1 87/8/1
f 99/5/1 98/6/1 87/7/1 88/8/1
f 100/5/1 101/6/1 90/7/1 89/8/1
f 102/5/1 100/6/1 89/7/1 91/8/1
f 103/1/1 102/2/1 91/3/1 92/4/1
f 104/5/1 103/6/1 92/7/1 93/8/1
f 105/1/1 104/2/1 93/3/1 94/4/1
f 106/5/1 105/6/1 94/7/1 95/8/1
f 107/5/1 106/6/1 95/7/1 96/8/1
f 108/5/1 107/6/1 96/7/1 97/8/1
f 109/5/1 108/6/1 97/7/1 98/8/1
f 110/5/1 109/6/1 98/7/1 99/8/1
f 111/9/1 112/10/1 101/11/1 100/12/1
f 113/9/1 111/10/1 100/11/1 102/12/1
f 114/9/1 113/10/1 102/11/1 103/12/1
f 115/9/1 114/10/1 103/11/1 104/12/1
f 116/13/1 115/14/1 104/15/1 105/16/1
f 117/13/1 116/14/1 105/15/1 106/16/1
f 118/9/1 117/10/1 106/11/1 107/12/1
f 119/9/1 118/10/1 107/11/1 108/12/1
f 120/9/1 119/10/1 108/11/1 109/12/1
f 121/9/1 120/10/1 109/11/1 110/12/1

g mesh_0002
f 1/17/1 2/18/1 3/19/1 4/20/1
f 5/21/1 1/22/1 4/23/1 6/24/1
f 7/21/1 5/22/1 6/23/1 8/24/1
f 9/21/1 7/22/1 8/23/1 10/24/1
f 11/21/1 9/22/1 10/23/1 12/24/1
f 13/21/1 11/22/1 12/23/1 14/24/1
f 15/21/1 13/22/1 14/23/1 16/24/1
f 17/21/1 15/22/1 16/23/1 18/24/1
f 19/21/1 17/22/1 18/23/1 20/24/1
f 21/25/1 19/26/1 20/27/1 22/28/1
f 23/29/1 24/30/1 2/31/1 1/32/1
f 25/33/1 23/34/1 1/35/1 5/36/1
f 26/33/1 25/34/1 5/35/1 7/36/1
f 27/33/1 26/34/1 7/35/1 9/36/1
f 28/33/1 27/34/1 9/35/1 11/36/1
f 29/37/1 28/38/1 11/39/1 13/40/1
f 30/33/1 29/34/1 13/35/1 15/36/1
f 31/33/1 30/34/1 15/35/1 17/36/1
f 32/33/1 31/34/1 17/35/1 19/36/1
f 33/29/1 32/30/1 19/31/1 21/32/1
f 34/29/1 35/30/1 24/31/1 23/32/1
f 36/41/1 34/42/1 23/43/1 25/44/1
f 37/33/1 36/34/1 25/35/1 26/36/1
f 38/33/1 37/34/1 26/35/1 27/36/1
f 39/33/1 38/34/1 27/35/1 28/36/1
f 40/33/1 39/34/1 28/35/1 29/36/1
f 41/33/1 40/34/1 29/35/1 30/36/1
f 42/33/1 41/34/1 30/35/1 31/36/1
f 43/33/1 42/34/1 31/35/1 32/36/1
f 44/29/1 43/30/1 32/31/1 33/32/1
f 45/29/1 46/30/1 35/31/1 34/32/1
f 55/29/1 54/30/1 43/31/1 44/32/1
f 56/29/1 57/30/1 46/31/1 45/32/1
f 66/29/1 65/30/1 54/31/1 55/32/1
f 67/29/1 68/30/1 57/31/1 56/32/1
f 77/29/1 76/30/1 65/31/1 66/32/1
f 78/45/1 79/46/1 68/47/1 67/48/1
f 88/45/1 87/46/1 76/47/1 77/48/1
f 89/33/1 90/34/1 79/35/1 78/36/1
f 99/33/1 98/34/1 87/35/1 88/36/1
f 100/41/1 101/42/1 90/43/1 89/44/1
f 110/33/1 109/34/1 98/35/1 99/36/1

g mesh_0003
f 30/49/1 29/50/1 13/51/1 15/52/1
f 31/49/1 30/50/1 15/51/1 17/52/1
f 32/53/1 31/54/1 17/55/1 19/56/1
f 36/57/1 34/58/1 23/59/1 25/60/1
f 37/61/1 36/62/1 25/63/1 26/64/1
f 38/65/1 37/66/1 26/67/1 27/68/1
f 41/69/1 40/70/1 29/71/1 30/72/1
f 42/73/1 41/74/1 30/75/1 31/76/1
f 43/77/1 42/78/1 31/79/1 32/80/1
f 58/81/1 56/82/1 45/83/1 47/84/1
f 69/85/1 67/86/1 56/87/1 58/88/1
f 73/89/1 72/90/1 61/91/1 62/92/1
f 74/93/1 73/94/1 62/95/1 63/96/1
f 75/97/1 74/98/1 63/99/1 64/100/1
f 76/101/1 75/102/1 64/103/1 65/104/1
f 94/105/1 93/106/1 82/107/1 83/108/1
f 95/109/1 94/110/1 83/111/1 84/112/1
f 105/113/1 104/114/1 93/115/1 94/116/1
f 106/117/1 105/118/1 94/119/1 95/120/1

